<?xml version="1.0" standalone="no"?>
 <!DOCTYPE svg PUBLIC "-//W3C//DTD SVG 1.1//EN" 
 "http://www.w3.org/Graphics/SVG/1.1/DTD/svg11.dtd"> 
<svg
  xmlns:svg="http://www.w3.org/2000/svg"
  xmlns="http://www.w3.org/2000/svg"
  xmlns:xlink="http://www.w3.org/1999/xlink"
  version="1.1"
  width="297.0022mm" height="210.0072mm" viewBox="0.0000 0.0000 297.0022 210.0072">
<title>SVG Image created as BusinessCard-B_Fab.svg date 2024/07/12 19:46:15 </title>
  <desc>Image generated by PCBNEW </desc>
<g style="fill:#000000; fill-opacity:1.0000;stroke:#000000; stroke-opacity:1.0000;
stroke-linecap:round; stroke-linejoin:round;"
 transform="translate(0 0) scale(1 1)">
</g>
<g style="fill:none; 
stroke:#000000; stroke-width:0.1000; stroke-opacity:1; 
stroke-linecap:round; stroke-linejoin:round;">
<text x="179.3750" y="83.6500"
transform="scale(-1 1) translate(-358.750000 0)"
textLength="1.5571" font-size="0.6667" lengthAdjust="spacingAndGlyphs"
text-anchor="middle" opacity="0">TP4</text>
<g class="stroked-text"><desc>TP4</desc>
<path d="M180.0060 83.1261
L179.7202 83.1261
" />
<path d="M179.8631 83.6261
L179.8631 83.1261
" />
<path d="M179.5536 83.6261
L179.5536 83.1261
" />
<path d="M179.5536 83.1261
L179.3631 83.1261
" />
<path d="M179.3631 83.1261
L179.3155 83.1499
" />
<path d="M179.3155 83.1499
L179.2917 83.1737
" />
<path d="M179.2917 83.1737
L179.2679 83.2213
" />
<path d="M179.2679 83.2213
L179.2679 83.2928
" />
<path d="M179.2679 83.2928
L179.2917 83.3404
" />
<path d="M179.2917 83.3404
L179.3155 83.3642
" />
<path d="M179.3155 83.3642
L179.3631 83.3880
" />
<path d="M179.3631 83.3880
L179.5536 83.3880
" />
<path d="M178.8393 83.2928
L178.8393 83.6261
" />
<path d="M178.9583 83.1023
L179.0774 83.4594
" />
<path d="M179.0774 83.4594
L178.7679 83.4594
" />
</g><text x="176.6000" y="81.2750"
transform="scale(-1 1) translate(-353.200000 0)"
textLength="4.3905" font-size="0.6667" lengthAdjust="spacingAndGlyphs"
text-anchor="middle" opacity="0">ST25DV04K</text>
<g class="stroked-text"><desc>ST25DV04K</desc>
<path d="M178.6000 81.2273
L178.5286 81.2511
" />
<path d="M178.5286 81.2511
L178.4095 81.2511
" />
<path d="M178.4095 81.2511
L178.3619 81.2273
" />
<path d="M178.3619 81.2273
L178.3381 81.2035
" />
<path d="M178.3381 81.2035
L178.3143 81.1559
" />
<path d="M178.3143 81.1559
L178.3143 81.1083
" />
<path d="M178.3143 81.1083
L178.3381 81.0606
" />
<path d="M178.3381 81.0606
L178.3619 81.0368
" />
<path d="M178.3619 81.0368
L178.4095 81.0130
" />
<path d="M178.4095 81.0130
L178.5048 80.9892
" />
<path d="M178.5048 80.9892
L178.5524 80.9654
" />
<path d="M178.5524 80.9654
L178.5762 80.9416
" />
<path d="M178.5762 80.9416
L178.6000 80.8940
" />
<path d="M178.6000 80.8940
L178.6000 80.8463
" />
<path d="M178.6000 80.8463
L178.5762 80.7987
" />
<path d="M178.5762 80.7987
L178.5524 80.7749
" />
<path d="M178.5524 80.7749
L178.5048 80.7511
" />
<path d="M178.5048 80.7511
L178.3857 80.7511
" />
<path d="M178.3857 80.7511
L178.3143 80.7749
" />
<path d="M178.1714 80.7511
L177.8857 80.7511
" />
<path d="M178.0286 81.2511
L178.0286 80.7511
" />
<path d="M177.7429 80.7987
L177.7190 80.7749
" />
<path d="M177.7190 80.7749
L177.6714 80.7511
" />
<path d="M177.6714 80.7511
L177.5524 80.7511
" />
<path d="M177.5524 80.7511
L177.5048 80.7749
" />
<path d="M177.5048 80.7749
L177.4810 80.7987
" />
<path d="M177.4810 80.7987
L177.4571 80.8463
" />
<path d="M177.4571 80.8463
L177.4571 80.8940
" />
<path d="M177.4571 80.8940
L177.4810 80.9654
" />
<path d="M177.4810 80.9654
L177.7667 81.2511
" />
<path d="M177.7667 81.2511
L177.4571 81.2511
" />
<path d="M177.0048 80.7511
L177.2429 80.7511
" />
<path d="M177.2429 80.7511
L177.2667 80.9892
" />
<path d="M177.2667 80.9892
L177.2429 80.9654
" />
<path d="M177.2429 80.9654
L177.1952 80.9416
" />
<path d="M177.1952 80.9416
L177.0762 80.9416
" />
<path d="M177.0762 80.9416
L177.0286 80.9654
" />
<path d="M177.0286 80.9654
L177.0048 80.9892
" />
<path d="M177.0048 80.9892
L176.9810 81.0368
" />
<path d="M176.9810 81.0368
L176.9810 81.1559
" />
<path d="M176.9810 81.1559
L177.0048 81.2035
" />
<path d="M177.0048 81.2035
L177.0286 81.2273
" />
<path d="M177.0286 81.2273
L177.0762 81.2511
" />
<path d="M177.0762 81.2511
L177.1952 81.2511
" />
<path d="M177.1952 81.2511
L177.2429 81.2273
" />
<path d="M177.2429 81.2273
L177.2667 81.2035
" />
<path d="M176.7667 81.2511
L176.7667 80.7511
" />
<path d="M176.7667 80.7511
L176.6476 80.7511
" />
<path d="M176.6476 80.7511
L176.5762 80.7749
" />
<path d="M176.5762 80.7749
L176.5286 80.8225
" />
<path d="M176.5286 80.8225
L176.5048 80.8702
" />
<path d="M176.5048 80.8702
L176.4810 80.9654
" />
<path d="M176.4810 80.9654
L176.4810 81.0368
" />
<path d="M176.4810 81.0368
L176.5048 81.1321
" />
<path d="M176.5048 81.1321
L176.5286 81.1797
" />
<path d="M176.5286 81.1797
L176.5762 81.2273
" />
<path d="M176.5762 81.2273
L176.6476 81.2511
" />
<path d="M176.6476 81.2511
L176.7667 81.2511
" />
<path d="M176.3381 80.7511
L176.1714 81.2511
" />
<path d="M176.1714 81.2511
L176.0048 80.7511
" />
<path d="M175.7429 80.7511
L175.6952 80.7511
" />
<path d="M175.6952 80.7511
L175.6476 80.7749
" />
<path d="M175.6476 80.7749
L175.6238 80.7987
" />
<path d="M175.6238 80.7987
L175.6000 80.8463
" />
<path d="M175.6000 80.8463
L175.5762 80.9416
" />
<path d="M175.5762 80.9416
L175.5762 81.0606
" />
<path d="M175.5762 81.0606
L175.6000 81.1559
" />
<path d="M175.6000 81.1559
L175.6238 81.2035
" />
<path d="M175.6238 81.2035
L175.6476 81.2273
" />
<path d="M175.6476 81.2273
L175.6952 81.2511
" />
<path d="M175.6952 81.2511
L175.7429 81.2511
" />
<path d="M175.7429 81.2511
L175.7905 81.2273
" />
<path d="M175.7905 81.2273
L175.8143 81.2035
" />
<path d="M175.8143 81.2035
L175.8381 81.1559
" />
<path d="M175.8381 81.1559
L175.8619 81.0606
" />
<path d="M175.8619 81.0606
L175.8619 80.9416
" />
<path d="M175.8619 80.9416
L175.8381 80.8463
" />
<path d="M175.8381 80.8463
L175.8143 80.7987
" />
<path d="M175.8143 80.7987
L175.7905 80.7749
" />
<path d="M175.7905 80.7749
L175.7429 80.7511
" />
<path d="M175.1476 80.9178
L175.1476 81.2511
" />
<path d="M175.2667 80.7273
L175.3857 81.0844
" />
<path d="M175.3857 81.0844
L175.0762 81.0844
" />
<path d="M174.8857 81.2511
L174.8857 80.7511
" />
<path d="M174.6000 81.2511
L174.8143 80.9654
" />
<path d="M174.6000 80.7511
L174.8857 81.0368
" />
</g></g>
<g style="fill:none; 
stroke:#000000; stroke-width:0.1050; stroke-opacity:1; 
stroke-linecap:round; stroke-linejoin:round;">
<text x="176.5000" y="79.9750"
transform="scale(-1 1) translate(-353.000000 0)"
textLength="1.5750" font-size="0.9333" lengthAdjust="spacingAndGlyphs"
text-anchor="middle" opacity="0">U2</text>
<g class="stroked-text"><desc>U2</desc>
<path d="M177.0333 79.2434
L177.0333 79.8100
" />
<path d="M177.0333 79.8100
L177.0000 79.8767
" />
<path d="M177.0000 79.8767
L176.9667 79.9100
" />
<path d="M176.9667 79.9100
L176.9000 79.9434
" />
<path d="M176.9000 79.9434
L176.7667 79.9434
" />
<path d="M176.7667 79.9434
L176.7000 79.9100
" />
<path d="M176.7000 79.9100
L176.6667 79.8767
" />
<path d="M176.6667 79.8767
L176.6333 79.8100
" />
<path d="M176.6333 79.8100
L176.6333 79.2434
" />
<path d="M176.3333 79.3100
L176.3000 79.2767
" />
<path d="M176.3000 79.2767
L176.2333 79.2434
" />
<path d="M176.2333 79.2434
L176.0667 79.2434
" />
<path d="M176.0667 79.2434
L176.0000 79.2767
" />
<path d="M176.0000 79.2767
L175.9667 79.3100
" />
<path d="M175.9667 79.3100
L175.9333 79.3767
" />
<path d="M175.9333 79.3767
L175.9333 79.4434
" />
<path d="M175.9333 79.4434
L175.9667 79.5434
" />
<path d="M175.9667 79.5434
L176.3667 79.9434
" />
<path d="M176.3667 79.9434
L175.9333 79.9434
" />
</g></g>
<g style="fill:none; 
stroke:#000000; stroke-width:0.1000; stroke-opacity:1; 
stroke-linecap:round; stroke-linejoin:round;">
<text x="180.8750" y="77.4000"
transform="scale(-1 1) translate(-361.750000 0)"
textLength="1.5571" font-size="0.6667" lengthAdjust="spacingAndGlyphs"
text-anchor="middle" opacity="0">TP7</text>
<g class="stroked-text"><desc>TP7</desc>
<path d="M181.5060 76.8761
L181.2202 76.8761
" />
<path d="M181.3631 77.3761
L181.3631 76.8761
" />
<path d="M181.0536 77.3761
L181.0536 76.8761
" />
<path d="M181.0536 76.8761
L180.8631 76.8761
" />
<path d="M180.8631 76.8761
L180.8155 76.8999
" />
<path d="M180.8155 76.8999
L180.7917 76.9237
" />
<path d="M180.7917 76.9237
L180.7679 76.9713
" />
<path d="M180.7679 76.9713
L180.7679 77.0428
" />
<path d="M180.7679 77.0428
L180.7917 77.0904
" />
<path d="M180.7917 77.0904
L180.8155 77.1142
" />
<path d="M180.8155 77.1142
L180.8631 77.1380
" />
<path d="M180.8631 77.1380
L181.0536 77.1380
" />
<path d="M180.6012 76.8761
L180.2679 76.8761
" />
<path d="M180.2679 76.8761
L180.4821 77.3761
" />
</g><text x="177.4000" y="77.3750"
transform="scale(-1 1) translate(-354.800000 0)"
textLength="2.5095" font-size="0.6667" lengthAdjust="spacingAndGlyphs"
text-anchor="middle" opacity="0">100nF</text>
<g class="stroked-text"><desc>100nF</desc>
<path d="M178.1738 77.3511
L178.4595 77.3511
" />
<path d="M178.3167 77.3511
L178.3167 76.8511
" />
<path d="M178.3167 76.8511
L178.3643 76.9225
" />
<path d="M178.3643 76.9225
L178.4119 76.9702
" />
<path d="M178.4119 76.9702
L178.4595 76.9940
" />
<path d="M177.8643 76.8511
L177.8167 76.8511
" />
<path d="M177.8167 76.8511
L177.7690 76.8749
" />
<path d="M177.7690 76.8749
L177.7452 76.8987
" />
<path d="M177.7452 76.8987
L177.7214 76.9463
" />
<path d="M177.7214 76.9463
L177.6976 77.0416
" />
<path d="M177.6976 77.0416
L177.6976 77.1606
" />
<path d="M177.6976 77.1606
L177.7214 77.2559
" />
<path d="M177.7214 77.2559
L177.7452 77.3035
" />
<path d="M177.7452 77.3035
L177.7690 77.3273
" />
<path d="M177.7690 77.3273
L177.8167 77.3511
" />
<path d="M177.8167 77.3511
L177.8643 77.3511
" />
<path d="M177.8643 77.3511
L177.9119 77.3273
" />
<path d="M177.9119 77.3273
L177.9357 77.3035
" />
<path d="M177.9357 77.3035
L177.9595 77.2559
" />
<path d="M177.9595 77.2559
L177.9833 77.1606
" />
<path d="M177.9833 77.1606
L177.9833 77.0416
" />
<path d="M177.9833 77.0416
L177.9595 76.9463
" />
<path d="M177.9595 76.9463
L177.9357 76.8987
" />
<path d="M177.9357 76.8987
L177.9119 76.8749
" />
<path d="M177.9119 76.8749
L177.8643 76.8511
" />
<path d="M177.3881 76.8511
L177.3405 76.8511
" />
<path d="M177.3405 76.8511
L177.2929 76.8749
" />
<path d="M177.2929 76.8749
L177.2690 76.8987
" />
<path d="M177.2690 76.8987
L177.2452 76.9463
" />
<path d="M177.2452 76.9463
L177.2214 77.0416
" />
<path d="M177.2214 77.0416
L177.2214 77.1606
" />
<path d="M177.2214 77.1606
L177.2452 77.2559
" />
<path d="M177.2452 77.2559
L177.2690 77.3035
" />
<path d="M177.2690 77.3035
L177.2929 77.3273
" />
<path d="M177.2929 77.3273
L177.3405 77.3511
" />
<path d="M177.3405 77.3511
L177.3881 77.3511
" />
<path d="M177.3881 77.3511
L177.4357 77.3273
" />
<path d="M177.4357 77.3273
L177.4595 77.3035
" />
<path d="M177.4595 77.3035
L177.4833 77.2559
" />
<path d="M177.4833 77.2559
L177.5071 77.1606
" />
<path d="M177.5071 77.1606
L177.5071 77.0416
" />
<path d="M177.5071 77.0416
L177.4833 76.9463
" />
<path d="M177.4833 76.9463
L177.4595 76.8987
" />
<path d="M177.4595 76.8987
L177.4357 76.8749
" />
<path d="M177.4357 76.8749
L177.3881 76.8511
" />
<path d="M177.0071 77.0178
L177.0071 77.3511
" />
<path d="M177.0071 77.0654
L176.9833 77.0416
" />
<path d="M176.9833 77.0416
L176.9357 77.0178
" />
<path d="M176.9357 77.0178
L176.8643 77.0178
" />
<path d="M176.8643 77.0178
L176.8167 77.0416
" />
<path d="M176.8167 77.0416
L176.7929 77.0892
" />
<path d="M176.7929 77.0892
L176.7929 77.3511
" />
<path d="M176.3881 77.0892
L176.5548 77.0892
" />
<path d="M176.5548 77.3511
L176.5548 76.8511
" />
<path d="M176.5548 76.8511
L176.3167 76.8511
" />
</g></g>
<g style="fill:none; 
stroke:#000000; stroke-width:0.0400; stroke-opacity:1; 
stroke-linecap:round; stroke-linejoin:round;">
<text x="177.4750" y="77.9250"
transform="scale(-1 1) translate(-354.950000 0)"
textLength="0.5581" font-size="0.3333" lengthAdjust="spacingAndGlyphs"
text-anchor="middle" opacity="0">C2</text>
<g class="stroked-text"><desc>C2</desc>
<path d="M177.5167 77.8898
L177.5286 77.9017
" />
<path d="M177.5286 77.9017
L177.5643 77.9136
" />
<path d="M177.5643 77.9136
L177.5881 77.9136
" />
<path d="M177.5881 77.9136
L177.6238 77.9017
" />
<path d="M177.6238 77.9017
L177.6476 77.8779
" />
<path d="M177.6476 77.8779
L177.6595 77.8541
" />
<path d="M177.6595 77.8541
L177.6714 77.8064
" />
<path d="M177.6714 77.8064
L177.6714 77.7707
" />
<path d="M177.6714 77.7707
L177.6595 77.7231
" />
<path d="M177.6595 77.7231
L177.6476 77.6993
" />
<path d="M177.6476 77.6993
L177.6238 77.6755
" />
<path d="M177.6238 77.6755
L177.5881 77.6636
" />
<path d="M177.5881 77.6636
L177.5643 77.6636
" />
<path d="M177.5643 77.6636
L177.5286 77.6755
" />
<path d="M177.5286 77.6755
L177.5167 77.6874
" />
<path d="M177.4214 77.6874
L177.4095 77.6755
" />
<path d="M177.4095 77.6755
L177.3857 77.6636
" />
<path d="M177.3857 77.6636
L177.3262 77.6636
" />
<path d="M177.3262 77.6636
L177.3024 77.6755
" />
<path d="M177.3024 77.6755
L177.2905 77.6874
" />
<path d="M177.2905 77.6874
L177.2786 77.7112
" />
<path d="M177.2786 77.7112
L177.2786 77.7350
" />
<path d="M177.2786 77.7350
L177.2905 77.7707
" />
<path d="M177.2905 77.7707
L177.4333 77.9136
" />
<path d="M177.4333 77.9136
L177.2786 77.9136
" />
</g></g>
<g style="fill:none; 
stroke:#000000; stroke-width:0.1000; stroke-opacity:1; 
stroke-linecap:round; stroke-linejoin:round;">
<text x="181.7000" y="82.4000"
transform="scale(-1 1) translate(-363.400000 0)"
textLength="1.5571" font-size="0.6667" lengthAdjust="spacingAndGlyphs"
text-anchor="middle" opacity="0">TP8</text>
<g class="stroked-text"><desc>TP8</desc>
<path d="M182.3310 81.8761
L182.0452 81.8761
" />
<path d="M182.1881 82.3761
L182.1881 81.8761
" />
<path d="M181.8786 82.3761
L181.8786 81.8761
" />
<path d="M181.8786 81.8761
L181.6881 81.8761
" />
<path d="M181.6881 81.8761
L181.6405 81.8999
" />
<path d="M181.6405 81.8999
L181.6167 81.9237
" />
<path d="M181.6167 81.9237
L181.5929 81.9713
" />
<path d="M181.5929 81.9713
L181.5929 82.0428
" />
<path d="M181.5929 82.0428
L181.6167 82.0904
" />
<path d="M181.6167 82.0904
L181.6405 82.1142
" />
<path d="M181.6405 82.1142
L181.6881 82.1380
" />
<path d="M181.6881 82.1380
L181.8786 82.1380
" />
<path d="M181.3071 82.0904
L181.3548 82.0666
" />
<path d="M181.3548 82.0666
L181.3786 82.0428
" />
<path d="M181.3786 82.0428
L181.4024 81.9952
" />
<path d="M181.4024 81.9952
L181.4024 81.9713
" />
<path d="M181.4024 81.9713
L181.3786 81.9237
" />
<path d="M181.3786 81.9237
L181.3548 81.8999
" />
<path d="M181.3548 81.8999
L181.3071 81.8761
" />
<path d="M181.3071 81.8761
L181.2119 81.8761
" />
<path d="M181.2119 81.8761
L181.1643 81.8999
" />
<path d="M181.1643 81.8999
L181.1405 81.9237
" />
<path d="M181.1405 81.9237
L181.1167 81.9713
" />
<path d="M181.1167 81.9713
L181.1167 81.9952
" />
<path d="M181.1167 81.9952
L181.1405 82.0428
" />
<path d="M181.1405 82.0428
L181.1643 82.0666
" />
<path d="M181.1643 82.0666
L181.2119 82.0904
" />
<path d="M181.2119 82.0904
L181.3071 82.0904
" />
<path d="M181.3071 82.0904
L181.3548 82.1142
" />
<path d="M181.3548 82.1142
L181.3786 82.1380
" />
<path d="M181.3786 82.1380
L181.4024 82.1856
" />
<path d="M181.4024 82.1856
L181.4024 82.2809
" />
<path d="M181.4024 82.2809
L181.3786 82.3285
" />
<path d="M181.3786 82.3285
L181.3548 82.3523
" />
<path d="M181.3548 82.3523
L181.3071 82.3761
" />
<path d="M181.3071 82.3761
L181.2119 82.3761
" />
<path d="M181.2119 82.3761
L181.1643 82.3523
" />
<path d="M181.1643 82.3523
L181.1405 82.3285
" />
<path d="M181.1405 82.3285
L181.1167 82.2809
" />
<path d="M181.1167 82.2809
L181.1167 82.1856
" />
<path d="M181.1167 82.1856
L181.1405 82.1380
" />
<path d="M181.1405 82.1380
L181.1643 82.1142
" />
<path d="M181.1643 82.1142
L181.2119 82.0904
" />
</g><text x="170.7000" y="82.2000"
transform="scale(-1 1) translate(-341.400000 0)"
textLength="1.5571" font-size="0.6667" lengthAdjust="spacingAndGlyphs"
text-anchor="middle" opacity="0">TP5</text>
<g class="stroked-text"><desc>TP5</desc>
<path d="M171.3310 81.6761
L171.0452 81.6761
" />
<path d="M171.1881 82.1761
L171.1881 81.6761
" />
<path d="M170.8786 82.1761
L170.8786 81.6761
" />
<path d="M170.8786 81.6761
L170.6881 81.6761
" />
<path d="M170.6881 81.6761
L170.6405 81.6999
" />
<path d="M170.6405 81.6999
L170.6167 81.7237
" />
<path d="M170.6167 81.7237
L170.5929 81.7713
" />
<path d="M170.5929 81.7713
L170.5929 81.8428
" />
<path d="M170.5929 81.8428
L170.6167 81.8904
" />
<path d="M170.6167 81.8904
L170.6405 81.9142
" />
<path d="M170.6405 81.9142
L170.6881 81.9380
" />
<path d="M170.6881 81.9380
L170.8786 81.9380
" />
<path d="M170.1405 81.6761
L170.3786 81.6761
" />
<path d="M170.3786 81.6761
L170.4024 81.9142
" />
<path d="M170.4024 81.9142
L170.3786 81.8904
" />
<path d="M170.3786 81.8904
L170.3310 81.8666
" />
<path d="M170.3310 81.8666
L170.2119 81.8666
" />
<path d="M170.2119 81.8666
L170.1643 81.8904
" />
<path d="M170.1643 81.8904
L170.1405 81.9142
" />
<path d="M170.1405 81.9142
L170.1167 81.9618
" />
<path d="M170.1167 81.9618
L170.1167 82.0809
" />
<path d="M170.1167 82.0809
L170.1405 82.1285
" />
<path d="M170.1405 82.1285
L170.1643 82.1523
" />
<path d="M170.1643 82.1523
L170.2119 82.1761
" />
<path d="M170.2119 82.1761
L170.3310 82.1761
" />
<path d="M170.3310 82.1761
L170.3786 82.1523
" />
<path d="M170.3786 82.1523
L170.4024 82.1285
" />
</g><text x="177.8250" y="74.8500"
transform="scale(-1 1) translate(-355.650000 0)"
textLength="1.5571" font-size="0.6667" lengthAdjust="spacingAndGlyphs"
text-anchor="middle" opacity="0">TP6</text>
<g class="stroked-text"><desc>TP6</desc>
<path d="M178.4560 74.3261
L178.1702 74.3261
" />
<path d="M178.3131 74.8261
L178.3131 74.3261
" />
<path d="M178.0036 74.8261
L178.0036 74.3261
" />
<path d="M178.0036 74.3261
L177.8131 74.3261
" />
<path d="M177.8131 74.3261
L177.7655 74.3499
" />
<path d="M177.7655 74.3499
L177.7417 74.3737
" />
<path d="M177.7417 74.3737
L177.7179 74.4213
" />
<path d="M177.7179 74.4213
L177.7179 74.4928
" />
<path d="M177.7179 74.4928
L177.7417 74.5404
" />
<path d="M177.7417 74.5404
L177.7655 74.5642
" />
<path d="M177.7655 74.5642
L177.8131 74.5880
" />
<path d="M177.8131 74.5880
L178.0036 74.5880
" />
<path d="M177.2893 74.3261
L177.3845 74.3261
" />
<path d="M177.3845 74.3261
L177.4321 74.3499
" />
<path d="M177.4321 74.3499
L177.4560 74.3737
" />
<path d="M177.4560 74.3737
L177.5036 74.4452
" />
<path d="M177.5036 74.4452
L177.5274 74.5404
" />
<path d="M177.5274 74.5404
L177.5274 74.7309
" />
<path d="M177.5274 74.7309
L177.5036 74.7785
" />
<path d="M177.5036 74.7785
L177.4798 74.8023
" />
<path d="M177.4798 74.8023
L177.4321 74.8261
" />
<path d="M177.4321 74.8261
L177.3369 74.8261
" />
<path d="M177.3369 74.8261
L177.2893 74.8023
" />
<path d="M177.2893 74.8023
L177.2655 74.7785
" />
<path d="M177.2655 74.7785
L177.2417 74.7309
" />
<path d="M177.2417 74.7309
L177.2417 74.6118
" />
<path d="M177.2417 74.6118
L177.2655 74.5642
" />
<path d="M177.2655 74.5642
L177.2893 74.5404
" />
<path d="M177.2893 74.5404
L177.3369 74.5166
" />
<path d="M177.3369 74.5166
L177.4321 74.5166
" />
<path d="M177.4321 74.5166
L177.4798 74.5404
" />
<path d="M177.4798 74.5404
L177.5036 74.5642
" />
<path d="M177.5036 74.5642
L177.5274 74.6118
" />
</g><text x="176.1250" y="83.7750"
transform="scale(-1 1) translate(-352.250000 0)"
textLength="1.5571" font-size="0.6667" lengthAdjust="spacingAndGlyphs"
text-anchor="middle" opacity="0">TP1</text>
<g class="stroked-text"><desc>TP1</desc>
<path d="M176.7560 83.2511
L176.4702 83.2511
" />
<path d="M176.6131 83.7511
L176.6131 83.2511
" />
<path d="M176.3036 83.7511
L176.3036 83.2511
" />
<path d="M176.3036 83.2511
L176.1131 83.2511
" />
<path d="M176.1131 83.2511
L176.0655 83.2749
" />
<path d="M176.0655 83.2749
L176.0417 83.2987
" />
<path d="M176.0417 83.2987
L176.0179 83.3463
" />
<path d="M176.0179 83.3463
L176.0179 83.4178
" />
<path d="M176.0179 83.4178
L176.0417 83.4654
" />
<path d="M176.0417 83.4654
L176.0655 83.4892
" />
<path d="M176.0655 83.4892
L176.1131 83.5130
" />
<path d="M176.1131 83.5130
L176.3036 83.5130
" />
<path d="M175.5417 83.7511
L175.8274 83.7511
" />
<path d="M175.6845 83.7511
L175.6845 83.2511
" />
<path d="M175.6845 83.2511
L175.7321 83.3225
" />
<path d="M175.7321 83.3225
L175.7798 83.3702
" />
<path d="M175.7798 83.3702
L175.8274 83.3940
" />
</g><text x="174.6000" y="77.4000"
transform="scale(-1 1) translate(-349.200000 0)"
textLength="2.5095" font-size="0.6667" lengthAdjust="spacingAndGlyphs"
text-anchor="middle" opacity="0">100nF</text>
<g class="stroked-text"><desc>100nF</desc>
<path d="M175.3738 77.3761
L175.6595 77.3761
" />
<path d="M175.5167 77.3761
L175.5167 76.8761
" />
<path d="M175.5167 76.8761
L175.5643 76.9475
" />
<path d="M175.5643 76.9475
L175.6119 76.9952
" />
<path d="M175.6119 76.9952
L175.6595 77.0190
" />
<path d="M175.0643 76.8761
L175.0167 76.8761
" />
<path d="M175.0167 76.8761
L174.9690 76.8999
" />
<path d="M174.9690 76.8999
L174.9452 76.9237
" />
<path d="M174.9452 76.9237
L174.9214 76.9713
" />
<path d="M174.9214 76.9713
L174.8976 77.0666
" />
<path d="M174.8976 77.0666
L174.8976 77.1856
" />
<path d="M174.8976 77.1856
L174.9214 77.2809
" />
<path d="M174.9214 77.2809
L174.9452 77.3285
" />
<path d="M174.9452 77.3285
L174.9690 77.3523
" />
<path d="M174.9690 77.3523
L175.0167 77.3761
" />
<path d="M175.0167 77.3761
L175.0643 77.3761
" />
<path d="M175.0643 77.3761
L175.1119 77.3523
" />
<path d="M175.1119 77.3523
L175.1357 77.3285
" />
<path d="M175.1357 77.3285
L175.1595 77.2809
" />
<path d="M175.1595 77.2809
L175.1833 77.1856
" />
<path d="M175.1833 77.1856
L175.1833 77.0666
" />
<path d="M175.1833 77.0666
L175.1595 76.9713
" />
<path d="M175.1595 76.9713
L175.1357 76.9237
" />
<path d="M175.1357 76.9237
L175.1119 76.8999
" />
<path d="M175.1119 76.8999
L175.0643 76.8761
" />
<path d="M174.5881 76.8761
L174.5405 76.8761
" />
<path d="M174.5405 76.8761
L174.4929 76.8999
" />
<path d="M174.4929 76.8999
L174.4690 76.9237
" />
<path d="M174.4690 76.9237
L174.4452 76.9713
" />
<path d="M174.4452 76.9713
L174.4214 77.0666
" />
<path d="M174.4214 77.0666
L174.4214 77.1856
" />
<path d="M174.4214 77.1856
L174.4452 77.2809
" />
<path d="M174.4452 77.2809
L174.4690 77.3285
" />
<path d="M174.4690 77.3285
L174.4929 77.3523
" />
<path d="M174.4929 77.3523
L174.5405 77.3761
" />
<path d="M174.5405 77.3761
L174.5881 77.3761
" />
<path d="M174.5881 77.3761
L174.6357 77.3523
" />
<path d="M174.6357 77.3523
L174.6595 77.3285
" />
<path d="M174.6595 77.3285
L174.6833 77.2809
" />
<path d="M174.6833 77.2809
L174.7071 77.1856
" />
<path d="M174.7071 77.1856
L174.7071 77.0666
" />
<path d="M174.7071 77.0666
L174.6833 76.9713
" />
<path d="M174.6833 76.9713
L174.6595 76.9237
" />
<path d="M174.6595 76.9237
L174.6357 76.8999
" />
<path d="M174.6357 76.8999
L174.5881 76.8761
" />
<path d="M174.2071 77.0428
L174.2071 77.3761
" />
<path d="M174.2071 77.0904
L174.1833 77.0666
" />
<path d="M174.1833 77.0666
L174.1357 77.0428
" />
<path d="M174.1357 77.0428
L174.0643 77.0428
" />
<path d="M174.0643 77.0428
L174.0167 77.0666
" />
<path d="M174.0167 77.0666
L173.9929 77.1142
" />
<path d="M173.9929 77.1142
L173.9929 77.3761
" />
<path d="M173.5881 77.1142
L173.7548 77.1142
" />
<path d="M173.7548 77.3761
L173.7548 76.8761
" />
<path d="M173.7548 76.8761
L173.5167 76.8761
" />
</g></g>
<g style="fill:none; 
stroke:#000000; stroke-width:0.0400; stroke-opacity:1; 
stroke-linecap:round; stroke-linejoin:round;">
<text x="175.4750" y="77.9250"
transform="scale(-1 1) translate(-350.950000 0)"
textLength="0.5581" font-size="0.3333" lengthAdjust="spacingAndGlyphs"
text-anchor="middle" opacity="0">C1</text>
<g class="stroked-text"><desc>C1</desc>
<path d="M175.5167 77.8898
L175.5286 77.9017
" />
<path d="M175.5286 77.9017
L175.5643 77.9136
" />
<path d="M175.5643 77.9136
L175.5881 77.9136
" />
<path d="M175.5881 77.9136
L175.6238 77.9017
" />
<path d="M175.6238 77.9017
L175.6476 77.8779
" />
<path d="M175.6476 77.8779
L175.6595 77.8541
" />
<path d="M175.6595 77.8541
L175.6714 77.8064
" />
<path d="M175.6714 77.8064
L175.6714 77.7707
" />
<path d="M175.6714 77.7707
L175.6595 77.7231
" />
<path d="M175.6595 77.7231
L175.6476 77.6993
" />
<path d="M175.6476 77.6993
L175.6238 77.6755
" />
<path d="M175.6238 77.6755
L175.5881 77.6636
" />
<path d="M175.5881 77.6636
L175.5643 77.6636
" />
<path d="M175.5643 77.6636
L175.5286 77.6755
" />
<path d="M175.5286 77.6755
L175.5167 77.6874
" />
<path d="M175.2786 77.9136
L175.4214 77.9136
" />
<path d="M175.3500 77.9136
L175.3500 77.6636
" />
<path d="M175.3500 77.6636
L175.3738 77.6993
" />
<path d="M175.3738 77.6993
L175.3976 77.7231
" />
<path d="M175.3976 77.7231
L175.4214 77.7350
" />
</g></g>
<g style="fill:none; 
stroke:#000000; stroke-width:0.1000; stroke-opacity:1; 
stroke-linecap:round; stroke-linejoin:round;">
<text x="175.0250" y="74.9000"
transform="scale(-1 1) translate(-350.050000 0)"
textLength="1.5571" font-size="0.6667" lengthAdjust="spacingAndGlyphs"
text-anchor="middle" opacity="0">TP3</text>
<g class="stroked-text"><desc>TP3</desc>
<path d="M175.6560 74.3761
L175.3702 74.3761
" />
<path d="M175.5131 74.8761
L175.5131 74.3761
" />
<path d="M175.2036 74.8761
L175.2036 74.3761
" />
<path d="M175.2036 74.3761
L175.0131 74.3761
" />
<path d="M175.0131 74.3761
L174.9655 74.3999
" />
<path d="M174.9655 74.3999
L174.9417 74.4237
" />
<path d="M174.9417 74.4237
L174.9179 74.4713
" />
<path d="M174.9179 74.4713
L174.9179 74.5428
" />
<path d="M174.9179 74.5428
L174.9417 74.5904
" />
<path d="M174.9417 74.5904
L174.9655 74.6142
" />
<path d="M174.9655 74.6142
L175.0131 74.6380
" />
<path d="M175.0131 74.6380
L175.2036 74.6380
" />
<path d="M174.7512 74.3761
L174.4417 74.3761
" />
<path d="M174.4417 74.3761
L174.6083 74.5666
" />
<path d="M174.6083 74.5666
L174.5369 74.5666
" />
<path d="M174.5369 74.5666
L174.4893 74.5904
" />
<path d="M174.4893 74.5904
L174.4655 74.6142
" />
<path d="M174.4655 74.6142
L174.4417 74.6618
" />
<path d="M174.4417 74.6618
L174.4417 74.7809
" />
<path d="M174.4417 74.7809
L174.4655 74.8285
" />
<path d="M174.4655 74.8285
L174.4893 74.8523
" />
<path d="M174.4893 74.8523
L174.5369 74.8761
" />
<path d="M174.5369 74.8761
L174.6798 74.8761
" />
<path d="M174.6798 74.8761
L174.7274 74.8523
" />
<path d="M174.7274 74.8523
L174.7512 74.8285
" />
</g><g transform="rotate(-90.000000 171.3000 79.8250)">
<text x="171.3000" y="80.0750"
transform="scale(-1 1) translate(-342.600000 0)"
textLength="1.5810" font-size="0.6667" lengthAdjust="spacingAndGlyphs"
text-anchor="middle" opacity="0">Red</text>
</g>
<g class="stroked-text"><desc>Red</desc>
<path d="M171.5261 79.5393
L171.2880 79.3726
" />
<path d="M171.5261 79.2536
L171.0261 79.2536
" />
<path d="M171.0261 79.2536
L171.0261 79.4440
" />
<path d="M171.0261 79.4440
L171.0499 79.4917
" />
<path d="M171.0499 79.4917
L171.0737 79.5155
" />
<path d="M171.0737 79.5155
L171.1213 79.5393
" />
<path d="M171.1213 79.5393
L171.1928 79.5393
" />
<path d="M171.1928 79.5393
L171.2404 79.5155
" />
<path d="M171.2404 79.5155
L171.2642 79.4917
" />
<path d="M171.2642 79.4917
L171.2880 79.4440
" />
<path d="M171.2880 79.4440
L171.2880 79.2536
" />
<path d="M171.5023 79.9440
L171.5261 79.8964
" />
<path d="M171.5261 79.8964
L171.5261 79.8012
" />
<path d="M171.5261 79.8012
L171.5023 79.7536
" />
<path d="M171.5023 79.7536
L171.4547 79.7298
" />
<path d="M171.4547 79.7298
L171.2642 79.7298
" />
<path d="M171.2642 79.7298
L171.2166 79.7536
" />
<path d="M171.2166 79.7536
L171.1928 79.8012
" />
<path d="M171.1928 79.8012
L171.1928 79.8964
" />
<path d="M171.1928 79.8964
L171.2166 79.9440
" />
<path d="M171.2166 79.9440
L171.2642 79.9679
" />
<path d="M171.2642 79.9679
L171.3118 79.9679
" />
<path d="M171.3118 79.9679
L171.3594 79.7298
" />
<path d="M171.5261 80.3964
L171.0261 80.3964
" />
<path d="M171.5023 80.3964
L171.5261 80.3488
" />
<path d="M171.5261 80.3488
L171.5261 80.2536
" />
<path d="M171.5261 80.2536
L171.5023 80.2060
" />
<path d="M171.5023 80.2060
L171.4785 80.1821
" />
<path d="M171.4785 80.1821
L171.4309 80.1583
" />
<path d="M171.4309 80.1583
L171.2880 80.1583
" />
<path d="M171.2880 80.1583
L171.2404 80.1821
" />
<path d="M171.2404 80.1821
L171.2166 80.2060
" />
<path d="M171.2166 80.2060
L171.1928 80.2536
" />
<path d="M171.1928 80.2536
L171.1928 80.3488
" />
<path d="M171.1928 80.3488
L171.2166 80.3964
" />
</g></g>
<g style="fill:none; 
stroke:#000000; stroke-width:0.0400; stroke-opacity:1; 
stroke-linecap:round; stroke-linejoin:round;">
<g transform="rotate(-90.000000 172.2250 79.8500)">
<text x="172.2250" y="79.9750"
transform="scale(-1 1) translate(-344.450000 0)"
textLength="0.5581" font-size="0.3333" lengthAdjust="spacingAndGlyphs"
text-anchor="middle" opacity="0">D1</text>
</g>
<g class="stroked-text"><desc>D1</desc>
<path d="M172.3386 79.6655
L172.0886 79.6655
" />
<path d="M172.0886 79.6655
L172.0886 79.7250
" />
<path d="M172.0886 79.7250
L172.1005 79.7607
" />
<path d="M172.1005 79.7607
L172.1243 79.7845
" />
<path d="M172.1243 79.7845
L172.1481 79.7964
" />
<path d="M172.1481 79.7964
L172.1957 79.8083
" />
<path d="M172.1957 79.8083
L172.2314 79.8083
" />
<path d="M172.2314 79.8083
L172.2790 79.7964
" />
<path d="M172.2790 79.7964
L172.3029 79.7845
" />
<path d="M172.3029 79.7845
L172.3267 79.7607
" />
<path d="M172.3267 79.7607
L172.3386 79.7250
" />
<path d="M172.3386 79.7250
L172.3386 79.6655
" />
<path d="M172.3386 80.0464
L172.3386 79.9036
" />
<path d="M172.3386 79.9750
L172.0886 79.9750
" />
<path d="M172.0886 79.9750
L172.1243 79.9512
" />
<path d="M172.1243 79.9512
L172.1481 79.9274
" />
<path d="M172.1481 79.9274
L172.1600 79.9036
" />
</g></g>
<g style="fill:none; 
stroke:#000000; stroke-width:0.1000; stroke-opacity:1; 
stroke-linecap:round; stroke-linejoin:round;">
<g transform="rotate(-90.000000 171.3000 77.9750)">
<text x="171.3000" y="78.2250"
transform="scale(-1 1) translate(-342.600000 0)"
textLength="1.7952" font-size="0.6667" lengthAdjust="spacingAndGlyphs"
text-anchor="middle" opacity="0">4.7k</text>
</g>
<g class="stroked-text"><desc>4.7k</desc>
<path d="M171.1928 77.5107
L171.5261 77.5107
" />
<path d="M171.0023 77.3917
L171.3594 77.2726
" />
<path d="M171.3594 77.2726
L171.3594 77.5821
" />
<path d="M171.4785 77.7726
L171.5023 77.7964
" />
<path d="M171.5023 77.7964
L171.5261 77.7726
" />
<path d="M171.5261 77.7726
L171.5023 77.7488
" />
<path d="M171.5023 77.7488
L171.4785 77.7726
" />
<path d="M171.4785 77.7726
L171.5261 77.7726
" />
<path d="M171.0261 77.9631
L171.0261 78.2964
" />
<path d="M171.0261 78.2964
L171.5261 78.0821
" />
<path d="M171.5261 78.4869
L171.0261 78.4869
" />
<path d="M171.3356 78.5345
L171.5261 78.6774
" />
<path d="M171.1928 78.6774
L171.3833 78.4869
" />
</g></g>
<g style="fill:none; 
stroke:#000000; stroke-width:0.0400; stroke-opacity:1; 
stroke-linecap:round; stroke-linejoin:round;">
<g transform="rotate(-90.000000 172.2250 77.9175)">
<text x="172.2250" y="78.0475"
transform="scale(-1 1) translate(-344.450000 0)"
textLength="0.5756" font-size="0.3467" lengthAdjust="spacingAndGlyphs"
text-anchor="middle" opacity="0">R1</text>
</g>
<g class="stroked-text"><desc>R1</desc>
<path d="M172.3432 77.8742
L172.2194 77.7875
" />
<path d="M172.3432 77.7256
L172.0832 77.7256
" />
<path d="M172.0832 77.7256
L172.0832 77.8246
" />
<path d="M172.0832 77.8246
L172.0956 77.8494
" />
<path d="M172.0956 77.8494
L172.1080 77.8618
" />
<path d="M172.1080 77.8618
L172.1327 77.8742
" />
<path d="M172.1327 77.8742
L172.1699 77.8742
" />
<path d="M172.1699 77.8742
L172.1946 77.8618
" />
<path d="M172.1946 77.8618
L172.2070 77.8494
" />
<path d="M172.2070 77.8494
L172.2194 77.8246
" />
<path d="M172.2194 77.8246
L172.2194 77.7256
" />
<path d="M172.3432 78.1218
L172.3432 77.9732
" />
<path d="M172.3432 78.0475
L172.0832 78.0475
" />
<path d="M172.0832 78.0475
L172.1203 78.0227
" />
<path d="M172.1203 78.0227
L172.1451 77.9980
" />
<path d="M172.1451 77.9980
L172.1575 77.9732
" />
</g></g>
<g style="fill:none; 
stroke:#000000; stroke-width:0.1000; stroke-opacity:1; 
stroke-linecap:round; stroke-linejoin:round;">
<g transform="rotate(-90.000000 180.0250 79.6000)">
<text x="180.0250" y="79.8500"
transform="scale(-1 1) translate(-360.050000 0)"
textLength="2.0333" font-size="0.6667" lengthAdjust="spacingAndGlyphs"
text-anchor="middle" opacity="0">39pF</text>
</g>
<g class="stroked-text"><desc>39pF</desc>
<path d="M179.7511 78.7548
L179.7511 79.0643
" />
<path d="M179.7511 79.0643
L179.9416 78.8976
" />
<path d="M179.9416 78.8976
L179.9416 78.9690
" />
<path d="M179.9416 78.9690
L179.9654 79.0167
" />
<path d="M179.9654 79.0167
L179.9892 79.0405
" />
<path d="M179.9892 79.0405
L180.0368 79.0643
" />
<path d="M180.0368 79.0643
L180.1559 79.0643
" />
<path d="M180.1559 79.0643
L180.2035 79.0405
" />
<path d="M180.2035 79.0405
L180.2273 79.0167
" />
<path d="M180.2273 79.0167
L180.2511 78.9690
" />
<path d="M180.2511 78.9690
L180.2511 78.8262
" />
<path d="M180.2511 78.8262
L180.2273 78.7786
" />
<path d="M180.2273 78.7786
L180.2035 78.7548
" />
<path d="M180.2511 79.3024
L180.2511 79.3976
" />
<path d="M180.2511 79.3976
L180.2273 79.4452
" />
<path d="M180.2273 79.4452
L180.2035 79.4690
" />
<path d="M180.2035 79.4690
L180.1321 79.5167
" />
<path d="M180.1321 79.5167
L180.0368 79.5405
" />
<path d="M180.0368 79.5405
L179.8463 79.5405
" />
<path d="M179.8463 79.5405
L179.7987 79.5167
" />
<path d="M179.7987 79.5167
L179.7749 79.4929
" />
<path d="M179.7749 79.4929
L179.7511 79.4452
" />
<path d="M179.7511 79.4452
L179.7511 79.3500
" />
<path d="M179.7511 79.3500
L179.7749 79.3024
" />
<path d="M179.7749 79.3024
L179.7987 79.2786
" />
<path d="M179.7987 79.2786
L179.8463 79.2548
" />
<path d="M179.8463 79.2548
L179.9654 79.2548
" />
<path d="M179.9654 79.2548
L180.0130 79.2786
" />
<path d="M180.0130 79.2786
L180.0368 79.3024
" />
<path d="M180.0368 79.3024
L180.0606 79.3500
" />
<path d="M180.0606 79.3500
L180.0606 79.4452
" />
<path d="M180.0606 79.4452
L180.0368 79.4929
" />
<path d="M180.0368 79.4929
L180.0130 79.5167
" />
<path d="M180.0130 79.5167
L179.9654 79.5405
" />
<path d="M179.9178 79.7548
L180.4178 79.7548
" />
<path d="M179.9416 79.7548
L179.9178 79.8024
" />
<path d="M179.9178 79.8024
L179.9178 79.8976
" />
<path d="M179.9178 79.8976
L179.9416 79.9452
" />
<path d="M179.9416 79.9452
L179.9654 79.9690
" />
<path d="M179.9654 79.9690
L180.0130 79.9929
" />
<path d="M180.0130 79.9929
L180.1559 79.9929
" />
<path d="M180.1559 79.9929
L180.2035 79.9690
" />
<path d="M180.2035 79.9690
L180.2273 79.9452
" />
<path d="M180.2273 79.9452
L180.2511 79.8976
" />
<path d="M180.2511 79.8976
L180.2511 79.8024
" />
<path d="M180.2511 79.8024
L180.2273 79.7548
" />
<path d="M179.9892 80.3738
L179.9892 80.2071
" />
<path d="M180.2511 80.2071
L179.7511 80.2071
" />
<path d="M179.7511 80.2071
L179.7511 80.4452
" />
</g></g>
<g style="fill:none; 
stroke:#000000; stroke-width:0.0400; stroke-opacity:1; 
stroke-linecap:round; stroke-linejoin:round;">
<g transform="rotate(-90.000000 179.2750 79.6000)">
<text x="179.2750" y="79.7250"
transform="scale(-1 1) translate(-358.550000 0)"
textLength="0.5581" font-size="0.3333" lengthAdjust="spacingAndGlyphs"
text-anchor="middle" opacity="0">C3</text>
</g>
<g class="stroked-text"><desc>C3</desc>
<path d="M179.3648 79.5583
L179.3767 79.5464
" />
<path d="M179.3767 79.5464
L179.3886 79.5107
" />
<path d="M179.3886 79.5107
L179.3886 79.4869
" />
<path d="M179.3886 79.4869
L179.3767 79.4512
" />
<path d="M179.3767 79.4512
L179.3529 79.4274
" />
<path d="M179.3529 79.4274
L179.3290 79.4155
" />
<path d="M179.3290 79.4155
L179.2814 79.4036
" />
<path d="M179.2814 79.4036
L179.2457 79.4036
" />
<path d="M179.2457 79.4036
L179.1981 79.4155
" />
<path d="M179.1981 79.4155
L179.1743 79.4274
" />
<path d="M179.1743 79.4274
L179.1505 79.4512
" />
<path d="M179.1505 79.4512
L179.1386 79.4869
" />
<path d="M179.1386 79.4869
L179.1386 79.5107
" />
<path d="M179.1386 79.5107
L179.1505 79.5464
" />
<path d="M179.1505 79.5464
L179.1624 79.5583
" />
<path d="M179.1386 79.6417
L179.1386 79.7964
" />
<path d="M179.1386 79.7964
L179.2338 79.7131
" />
<path d="M179.2338 79.7131
L179.2338 79.7488
" />
<path d="M179.2338 79.7488
L179.2457 79.7726
" />
<path d="M179.2457 79.7726
L179.2576 79.7845
" />
<path d="M179.2576 79.7845
L179.2814 79.7964
" />
<path d="M179.2814 79.7964
L179.3410 79.7964
" />
<path d="M179.3410 79.7964
L179.3648 79.7845
" />
<path d="M179.3648 79.7845
L179.3767 79.7726
" />
<path d="M179.3767 79.7726
L179.3886 79.7488
" />
<path d="M179.3886 79.7488
L179.3886 79.6774
" />
<path d="M179.3886 79.6774
L179.3767 79.6536
" />
<path d="M179.3767 79.6536
L179.3648 79.6417
" />
</g></g>
<g style="fill:none; 
stroke:#000000; stroke-width:0.1000; stroke-opacity:1; 
stroke-linecap:round; stroke-linejoin:round;">
<text x="172.3750" y="84.1000"
transform="scale(-1 1) translate(-344.750000 0)"
textLength="1.5571" font-size="0.6667" lengthAdjust="spacingAndGlyphs"
text-anchor="middle" opacity="0">TP2</text>
<g class="stroked-text"><desc>TP2</desc>
<path d="M173.0060 83.5761
L172.7202 83.5761
" />
<path d="M172.8631 84.0761
L172.8631 83.5761
" />
<path d="M172.5536 84.0761
L172.5536 83.5761
" />
<path d="M172.5536 83.5761
L172.3631 83.5761
" />
<path d="M172.3631 83.5761
L172.3155 83.5999
" />
<path d="M172.3155 83.5999
L172.2917 83.6237
" />
<path d="M172.2917 83.6237
L172.2679 83.6713
" />
<path d="M172.2679 83.6713
L172.2679 83.7428
" />
<path d="M172.2679 83.7428
L172.2917 83.7904
" />
<path d="M172.2917 83.7904
L172.3155 83.8142
" />
<path d="M172.3155 83.8142
L172.3631 83.8380
" />
<path d="M172.3631 83.8380
L172.5536 83.8380
" />
<path d="M172.0774 83.6237
L172.0536 83.5999
" />
<path d="M172.0536 83.5999
L172.0060 83.5761
" />
<path d="M172.0060 83.5761
L171.8869 83.5761
" />
<path d="M171.8869 83.5761
L171.8393 83.5999
" />
<path d="M171.8393 83.5999
L171.8155 83.6237
" />
<path d="M171.8155 83.6237
L171.7917 83.6713
" />
<path d="M171.7917 83.6713
L171.7917 83.7190
" />
<path d="M171.7917 83.7190
L171.8155 83.7904
" />
<path d="M171.8155 83.7904
L172.1012 84.0761
" />
<path d="M172.1012 84.0761
L171.7917 84.0761
" />
</g><path d="M178.0000 80.6250
L175.0000 80.6250
" />
<path d="M178.0000 79.1250
L178.0000 80.6250
" />
<path d="M177.5000 78.6250
L178.0000 79.1250
" />
<path d="M175.0000 80.6250
L175.0000 78.6250
" />
<path d="M175.0000 78.6250
L177.5000 78.6250
" />
<path d="M177.9750 78.0500
L176.9750 78.0500
" />
<path d="M177.9750 77.5500
L177.9750 78.0500
" />
<path d="M176.9750 78.0500
L176.9750 77.5500
" />
<path d="M176.9750 77.5500
L177.9750 77.5500
" />
<path d="M175.9750 78.0500
L174.9750 78.0500
" />
<path d="M175.9750 77.5500
L175.9750 78.0500
" />
<path d="M174.9750 78.0500
L174.9750 77.5500
" />
<path d="M174.9750 77.5500
L175.9750 77.5500
" />
<path d="M172.4750 80.3500
L171.9750 80.3500
" />
<path d="M172.4750 80.2500
L171.9750 80.2500
" />
<path d="M172.4750 80.1500
L171.9750 80.1500
" />
<path d="M172.4750 79.3500
L172.4750 80.3500
" />
<path d="M171.9750 80.3500
L171.9750 79.3500
" />
<path d="M171.9750 79.3500
L172.4750 79.3500
" />
<path d="M172.4950 78.4425
L171.9550 78.4425
" />
<path d="M172.4950 77.3925
L172.4950 78.4425
" />
<path d="M171.9550 78.4425
L171.9550 77.3925
" />
<path d="M171.9550 77.3925
L172.4950 77.3925
" />
<path d="M179.5250 80.1000
L179.0250 80.1000
" />
<path d="M179.5250 79.1000
L179.5250 80.1000
" />
<path d="M179.0250 80.1000
L179.0250 79.1000
" />
<path d="M179.0250 79.1000
L179.5250 79.1000
" />
</g>
<g style="fill:none; 
stroke:#000000; stroke-width:0.0212; stroke-opacity:1; 
stroke-linecap:round; stroke-linejoin:round;">
<circle cx="183.2000" cy="79.2000" r="0.4000" /> 
</g>
<g style="fill:none; 
stroke:#000000; stroke-width:0.0212; stroke-opacity:1; 
stroke-linecap:round; stroke-linejoin:round;">
<circle cx="186.3000" cy="80.0000" r="0.4000" /> 
</g>
<g style="fill:none; 
stroke:#000000; stroke-width:0.0212; stroke-opacity:1; 
stroke-linecap:round; stroke-linejoin:round;">
<circle cx="179.0750" cy="81.9500" r="0.5000" /> 
<path style="fill:none; 
stroke:#000000; stroke-width:0.0212; stroke-opacity:1; 
stroke-linecap:round; stroke-linejoin:round;fill:none"
d="M 175.3750,78.7250
175.3750,79.0250
174.6250,79.0250
174.6250,78.7250
Z" /> 
<path style="fill:none; 
stroke:#000000; stroke-width:0.0212; stroke-opacity:1; 
stroke-linecap:round; stroke-linejoin:round;fill:none"
d="M 175.3750,79.2250
175.3750,79.5250
174.6250,79.5250
174.6250,79.2250
Z" /> 
<path style="fill:none; 
stroke:#000000; stroke-width:0.0212; stroke-opacity:1; 
stroke-linecap:round; stroke-linejoin:round;fill:none"
d="M 175.3750,79.7250
175.3750,80.0250
174.6250,80.0250
174.6250,79.7250
Z" /> 
<path style="fill:none; 
stroke:#000000; stroke-width:0.0212; stroke-opacity:1; 
stroke-linecap:round; stroke-linejoin:round;fill:none"
d="M 175.3750,80.2250
175.3750,80.5250
174.6250,80.5250
174.6250,80.2250
Z" /> 
<path style="fill:none; 
stroke:#000000; stroke-width:0.0212; stroke-opacity:1; 
stroke-linecap:round; stroke-linejoin:round;fill:none"
d="M 177.1800,78.8950
177.1800,80.3550
175.8200,80.3550
175.8200,78.8950
Z" /> 
<path style="fill:none; 
stroke:#000000; stroke-width:0.0212; stroke-opacity:1; 
stroke-linecap:round; stroke-linejoin:round;fill:none"
d="M 178.3750,80.2250
178.3750,80.5250
177.6250,80.5250
177.6250,80.2250
Z" /> 
<path style="fill:none; 
stroke:#000000; stroke-width:0.0212; stroke-opacity:1; 
stroke-linecap:round; stroke-linejoin:round;fill:none"
d="M 178.3750,79.7250
178.3750,80.0250
177.6250,80.0250
177.6250,79.7250
Z" /> 
<path style="fill:none; 
stroke:#000000; stroke-width:0.0212; stroke-opacity:1; 
stroke-linecap:round; stroke-linejoin:round;fill:none"
d="M 178.3750,79.2250
178.3750,79.5250
177.6250,79.5250
177.6250,79.2250
Z" /> 
<path style="fill:none; 
stroke:#000000; stroke-width:0.0212; stroke-opacity:1; 
stroke-linecap:round; stroke-linejoin:round;fill:none"
d="M 178.3750,78.7250
178.3750,79.0250
177.6250,79.0250
177.6250,78.7250
Z" /> 
</g>
<g style="fill:none; 
stroke:#000000; stroke-width:0.0212; stroke-opacity:1; 
stroke-linecap:round; stroke-linejoin:round;">
<circle cx="180.8750" cy="78.6000" r="0.5000" /> 
<path style="fill:none; 
stroke:#000000; stroke-width:0.0212; stroke-opacity:1; 
stroke-linecap:round; stroke-linejoin:round;fill:none"
d="M 177.2750,77.9700
177.2643,78.0236
177.2340,78.0690
177.1886,78.0993
177.1350,78.1100
176.8550,78.1100
176.8014,78.0993
176.7560,78.0690
176.7257,78.0236
176.7150,77.9700
176.7150,77.6300
176.7257,77.5764
176.7560,77.5310
176.8014,77.5007
176.8550,77.4900
177.1350,77.4900
177.1886,77.5007
177.2340,77.5310
177.2643,77.5764
177.2750,77.6300
Z" /> 
<path style="fill:none; 
stroke:#000000; stroke-width:0.0212; stroke-opacity:1; 
stroke-linecap:round; stroke-linejoin:round;fill:none"
d="M 178.2350,77.9700
178.2243,78.0236
178.1940,78.0690
178.1486,78.0993
178.0950,78.1100
177.8150,78.1100
177.7614,78.0993
177.7160,78.0690
177.6857,78.0236
177.6750,77.9700
177.6750,77.6300
177.6857,77.5764
177.7160,77.5310
177.7614,77.5007
177.8150,77.4900
178.0950,77.4900
178.1486,77.5007
178.1940,77.5310
178.2243,77.5764
178.2350,77.6300
Z" /> 
</g>
<g style="fill:none; 
stroke:#000000; stroke-width:0.0212; stroke-opacity:1; 
stroke-linecap:round; stroke-linejoin:round;">
<circle cx="180.8250" cy="80.7000" r="0.5000" /> 
</g>
<g style="fill:none; 
stroke:#000000; stroke-width:0.0212; stroke-opacity:1; 
stroke-linecap:round; stroke-linejoin:round;">
<circle cx="172.2250" cy="81.8000" r="0.5000" /> 
</g>
<g style="fill:none; 
stroke:#000000; stroke-width:0.0212; stroke-opacity:1; 
stroke-linecap:round; stroke-linejoin:round;">
<circle cx="177.8250" cy="76.0500" r="0.5000" /> 
</g>
<g style="fill:none; 
stroke:#000000; stroke-width:0.0212; stroke-opacity:1; 
stroke-linecap:round; stroke-linejoin:round;">
<circle cx="175.4250" cy="81.9500" r="0.5000" /> 
<path style="fill:none; 
stroke:#000000; stroke-width:0.0212; stroke-opacity:1; 
stroke-linecap:round; stroke-linejoin:round;fill:none"
d="M 175.6750,77.6300
175.6857,77.5764
175.7160,77.5310
175.7614,77.5007
175.8150,77.4900
176.0950,77.4900
176.1486,77.5007
176.1940,77.5310
176.2243,77.5764
176.2350,77.6300
176.2350,77.9700
176.2243,78.0236
176.1940,78.0690
176.1486,78.0993
176.0950,78.1100
175.8150,78.1100
175.7614,78.0993
175.7160,78.0690
175.6857,78.0236
175.6750,77.9700
Z" /> 
<path style="fill:none; 
stroke:#000000; stroke-width:0.0212; stroke-opacity:1; 
stroke-linecap:round; stroke-linejoin:round;fill:none"
d="M 174.7150,77.6300
174.7257,77.5764
174.7560,77.5310
174.8014,77.5007
174.8550,77.4900
175.1350,77.4900
175.1886,77.5007
175.2340,77.5310
175.2643,77.5764
175.2750,77.6300
175.2750,77.9700
175.2643,78.0236
175.2340,78.0690
175.1886,78.0993
175.1350,78.1100
174.8550,78.1100
174.8014,78.0993
174.7560,78.0690
174.7257,78.0236
174.7150,77.9700
Z" /> 
</g>
<g style="fill:none; 
stroke:#000000; stroke-width:0.0212; stroke-opacity:1; 
stroke-linecap:round; stroke-linejoin:round;">
<circle cx="175.0250" cy="76.1000" r="0.5000" /> 
<path style="fill:none; 
stroke:#000000; stroke-width:0.0212; stroke-opacity:1; 
stroke-linecap:round; stroke-linejoin:round;fill:none"
d="M 172.0525,79.6600
171.9961,79.6488
171.9482,79.6168
171.9162,79.5689
171.9050,79.5125
171.9050,79.2175
171.9162,79.1611
171.9482,79.1132
171.9961,79.0812
172.0525,79.0700
172.3975,79.0700
172.4539,79.0812
172.5018,79.1132
172.5338,79.1611
172.5450,79.2175
172.5450,79.5125
172.5338,79.5689
172.5018,79.6168
172.4539,79.6488
172.3975,79.6600
Z" /> 
<path style="fill:none; 
stroke:#000000; stroke-width:0.0212; stroke-opacity:1; 
stroke-linecap:round; stroke-linejoin:round;fill:none"
d="M 172.0525,80.6300
171.9961,80.6188
171.9482,80.5868
171.9162,80.5389
171.9050,80.4825
171.9050,80.1875
171.9162,80.1311
171.9482,80.0832
171.9961,80.0512
172.0525,80.0400
172.3975,80.0400
172.4539,80.0512
172.5018,80.0832
172.5338,80.1311
172.5450,80.1875
172.5450,80.4825
172.5338,80.5389
172.5018,80.5868
172.4539,80.6188
172.3975,80.6300
Z" /> 
<path style="fill:none; 
stroke:#000000; stroke-width:0.0212; stroke-opacity:1; 
stroke-linecap:round; stroke-linejoin:round;fill:none"
d="M 172.4100,78.1575
172.4617,78.1678
172.5055,78.1970
172.5347,78.2408
172.5450,78.2925
172.5450,78.5625
172.5347,78.6142
172.5055,78.6580
172.4617,78.6872
172.4100,78.6975
172.0400,78.6975
171.9883,78.6872
171.9445,78.6580
171.9153,78.6142
171.9050,78.5625
171.9050,78.2925
171.9153,78.2408
171.9445,78.1970
171.9883,78.1678
172.0400,78.1575
Z" /> 
<path style="fill:none; 
stroke:#000000; stroke-width:0.0212; stroke-opacity:1; 
stroke-linecap:round; stroke-linejoin:round;fill:none"
d="M 172.4100,77.1375
172.4617,77.1478
172.5055,77.1770
172.5347,77.2208
172.5450,77.2725
172.5450,77.5425
172.5347,77.5942
172.5055,77.6380
172.4617,77.6672
172.4100,77.6775
172.0400,77.6775
171.9883,77.6672
171.9445,77.6380
171.9153,77.5942
171.9050,77.5425
171.9050,77.2725
171.9153,77.2208
171.9445,77.1770
171.9883,77.1478
172.0400,77.1375
Z" /> 
<path style="fill:none; 
stroke:#000000; stroke-width:0.0212; stroke-opacity:1; 
stroke-linecap:round; stroke-linejoin:round;fill:none"
d="M 179.4450,79.8000
179.4986,79.8107
179.5440,79.8410
179.5743,79.8864
179.5850,79.9400
179.5850,80.2200
179.5743,80.2736
179.5440,80.3190
179.4986,80.3493
179.4450,80.3600
179.1050,80.3600
179.0514,80.3493
179.0060,80.3190
178.9757,80.2736
178.9650,80.2200
178.9650,79.9400
178.9757,79.8864
179.0060,79.8410
179.0514,79.8107
179.1050,79.8000
Z" /> 
<path style="fill:none; 
stroke:#000000; stroke-width:0.0212; stroke-opacity:1; 
stroke-linecap:round; stroke-linejoin:round;fill:none"
d="M 179.4450,78.8400
179.4986,78.8507
179.5440,78.8810
179.5743,78.9264
179.5850,78.9800
179.5850,79.2600
179.5743,79.3136
179.5440,79.3590
179.4986,79.3893
179.4450,79.4000
179.1050,79.4000
179.0514,79.3893
179.0060,79.3590
178.9757,79.3136
178.9650,79.2600
178.9650,78.9800
178.9757,78.9264
179.0060,78.8810
179.0514,78.8507
179.1050,78.8400
Z" /> 
</g>
<g style="fill:none; 
stroke:#000000; stroke-width:0.0212; stroke-opacity:1; 
stroke-linecap:round; stroke-linejoin:round;">
<circle cx="173.7250" cy="83.2000" r="0.5000" /> 
</g>
<g style="fill:none; 
stroke:#000000; stroke-width:0.0500; stroke-opacity:1; 
stroke-linecap:round; stroke-linejoin:round;">
<circle cx="150.0000" cy="80.0000" r="37.0000" /> 
</g> 
</svg>
