<?xml version="1.0" standalone="no"?>
 <!DOCTYPE svg PUBLIC "-//W3C//DTD SVG 1.1//EN" 
 "http://www.w3.org/Graphics/SVG/1.1/DTD/svg11.dtd"> 
<svg
  xmlns:svg="http://www.w3.org/2000/svg"
  xmlns="http://www.w3.org/2000/svg"
  xmlns:xlink="http://www.w3.org/1999/xlink"
  version="1.1"
  width="297.0022mm" height="210.0072mm" viewBox="0.0000 0.0000 297.0022 210.0072">
<title>SVG Image created as BusinessCard-B_Cu.svg date 2024/07/12 19:46:15 </title>
  <desc>Image generated by PCBNEW </desc>
<g style="fill:#000000; fill-opacity:1.0000;stroke:#000000; stroke-opacity:1.0000;
stroke-linecap:round; stroke-linejoin:round;"
 transform="translate(0 0) scale(1 1)">
</g>
<g style="fill:#000000; fill-opacity:1.0000; stroke:none;">
<circle cx="183.2000" cy="79.2000" r="0.4000" /> 
</g>
<g style="fill:#000000; fill-opacity:1.0000; stroke:none;">
<circle cx="186.3000" cy="80.0000" r="0.4000" /> 
</g>
<g style="fill:#000000; fill-opacity:1.0000; stroke:none;">
<circle cx="179.0750" cy="81.9500" r="0.5000" /> 
<path style="fill:#000000; fill-opacity:1.0000; stroke:none;fill-rule:evenodd;"
d="M 175.3750,78.7250
175.3750,79.0250
174.6250,79.0250
174.6250,78.7250
Z" /> 
<path style="fill:#000000; fill-opacity:1.0000; stroke:none;fill-rule:evenodd;"
d="M 175.3750,79.2250
175.3750,79.5250
174.6250,79.5250
174.6250,79.2250
Z" /> 
<path style="fill:#000000; fill-opacity:1.0000; stroke:none;fill-rule:evenodd;"
d="M 175.3750,79.7250
175.3750,80.0250
174.6250,80.0250
174.6250,79.7250
Z" /> 
<path style="fill:#000000; fill-opacity:1.0000; stroke:none;fill-rule:evenodd;"
d="M 175.3750,80.2250
175.3750,80.5250
174.6250,80.5250
174.6250,80.2250
Z" /> 
<path style="fill:#000000; fill-opacity:1.0000; stroke:none;fill-rule:evenodd;"
d="M 177.1800,78.8950
177.1800,80.3550
175.8200,80.3550
175.8200,78.8950
Z" /> 
<path style="fill:#000000; fill-opacity:1.0000; stroke:none;fill-rule:evenodd;"
d="M 178.3750,80.2250
178.3750,80.5250
177.6250,80.5250
177.6250,80.2250
Z" /> 
<path style="fill:#000000; fill-opacity:1.0000; stroke:none;fill-rule:evenodd;"
d="M 178.3750,79.7250
178.3750,80.0250
177.6250,80.0250
177.6250,79.7250
Z" /> 
<path style="fill:#000000; fill-opacity:1.0000; stroke:none;fill-rule:evenodd;"
d="M 178.3750,79.2250
178.3750,79.5250
177.6250,79.5250
177.6250,79.2250
Z" /> 
<path style="fill:#000000; fill-opacity:1.0000; stroke:none;fill-rule:evenodd;"
d="M 178.3750,78.7250
178.3750,79.0250
177.6250,79.0250
177.6250,78.7250
Z" /> 
</g>
<g style="fill:#000000; fill-opacity:1.0000; stroke:none;">
<circle cx="180.8750" cy="78.6000" r="0.5000" /> 
<path style="fill:#000000; fill-opacity:1.0000; stroke:none;fill-rule:evenodd;"
d="M 177.2750,77.9700
177.2643,78.0236
177.2340,78.0690
177.1886,78.0993
177.1350,78.1100
176.8550,78.1100
176.8014,78.0993
176.7560,78.0690
176.7257,78.0236
176.7150,77.9700
176.7150,77.6300
176.7257,77.5764
176.7560,77.5310
176.8014,77.5007
176.8550,77.4900
177.1350,77.4900
177.1886,77.5007
177.2340,77.5310
177.2643,77.5764
177.2750,77.6300
Z" /> 
<path style="fill:#000000; fill-opacity:1.0000; stroke:none;fill-rule:evenodd;"
d="M 178.2350,77.9700
178.2243,78.0236
178.1940,78.0690
178.1486,78.0993
178.0950,78.1100
177.8150,78.1100
177.7614,78.0993
177.7160,78.0690
177.6857,78.0236
177.6750,77.9700
177.6750,77.6300
177.6857,77.5764
177.7160,77.5310
177.7614,77.5007
177.8150,77.4900
178.0950,77.4900
178.1486,77.5007
178.1940,77.5310
178.2243,77.5764
178.2350,77.6300
Z" /> 
</g>
<g style="fill:#000000; fill-opacity:1.0000; stroke:none;">
<circle cx="180.8250" cy="80.7000" r="0.5000" /> 
</g>
<g style="fill:#000000; fill-opacity:1.0000; stroke:none;">
<circle cx="172.2250" cy="81.8000" r="0.5000" /> 
</g>
<g style="fill:#000000; fill-opacity:1.0000; stroke:none;">
<circle cx="177.8250" cy="76.0500" r="0.5000" /> 
</g>
<g style="fill:#000000; fill-opacity:1.0000; stroke:none;">
<circle cx="175.4250" cy="81.9500" r="0.5000" /> 
<path style="fill:#000000; fill-opacity:1.0000; stroke:none;fill-rule:evenodd;"
d="M 175.6750,77.6300
175.6857,77.5764
175.7160,77.5310
175.7614,77.5007
175.8150,77.4900
176.0950,77.4900
176.1486,77.5007
176.1940,77.5310
176.2243,77.5764
176.2350,77.6300
176.2350,77.9700
176.2243,78.0236
176.1940,78.0690
176.1486,78.0993
176.0950,78.1100
175.8150,78.1100
175.7614,78.0993
175.7160,78.0690
175.6857,78.0236
175.6750,77.9700
Z" /> 
<path style="fill:#000000; fill-opacity:1.0000; stroke:none;fill-rule:evenodd;"
d="M 174.7150,77.6300
174.7257,77.5764
174.7560,77.5310
174.8014,77.5007
174.8550,77.4900
175.1350,77.4900
175.1886,77.5007
175.2340,77.5310
175.2643,77.5764
175.2750,77.6300
175.2750,77.9700
175.2643,78.0236
175.2340,78.0690
175.1886,78.0993
175.1350,78.1100
174.8550,78.1100
174.8014,78.0993
174.7560,78.0690
174.7257,78.0236
174.7150,77.9700
Z" /> 
</g>
<g style="fill:#000000; fill-opacity:1.0000; stroke:none;">
<circle cx="175.0250" cy="76.1000" r="0.5000" /> 
<path style="fill:#000000; fill-opacity:1.0000; stroke:none;fill-rule:evenodd;"
d="M 172.0525,79.6600
171.9961,79.6488
171.9482,79.6168
171.9162,79.5689
171.9050,79.5125
171.9050,79.2175
171.9162,79.1611
171.9482,79.1132
171.9961,79.0812
172.0525,79.0700
172.3975,79.0700
172.4539,79.0812
172.5018,79.1132
172.5338,79.1611
172.5450,79.2175
172.5450,79.5125
172.5338,79.5689
172.5018,79.6168
172.4539,79.6488
172.3975,79.6600
Z" /> 
<path style="fill:#000000; fill-opacity:1.0000; stroke:none;fill-rule:evenodd;"
d="M 172.0525,80.6300
171.9961,80.6188
171.9482,80.5868
171.9162,80.5389
171.9050,80.4825
171.9050,80.1875
171.9162,80.1311
171.9482,80.0832
171.9961,80.0512
172.0525,80.0400
172.3975,80.0400
172.4539,80.0512
172.5018,80.0832
172.5338,80.1311
172.5450,80.1875
172.5450,80.4825
172.5338,80.5389
172.5018,80.5868
172.4539,80.6188
172.3975,80.6300
Z" /> 
<path style="fill:#000000; fill-opacity:1.0000; stroke:none;fill-rule:evenodd;"
d="M 172.4100,78.1575
172.4617,78.1678
172.5055,78.1970
172.5347,78.2408
172.5450,78.2925
172.5450,78.5625
172.5347,78.6142
172.5055,78.6580
172.4617,78.6872
172.4100,78.6975
172.0400,78.6975
171.9883,78.6872
171.9445,78.6580
171.9153,78.6142
171.9050,78.5625
171.9050,78.2925
171.9153,78.2408
171.9445,78.1970
171.9883,78.1678
172.0400,78.1575
Z" /> 
<path style="fill:#000000; fill-opacity:1.0000; stroke:none;fill-rule:evenodd;"
d="M 172.4100,77.1375
172.4617,77.1478
172.5055,77.1770
172.5347,77.2208
172.5450,77.2725
172.5450,77.5425
172.5347,77.5942
172.5055,77.6380
172.4617,77.6672
172.4100,77.6775
172.0400,77.6775
171.9883,77.6672
171.9445,77.6380
171.9153,77.5942
171.9050,77.5425
171.9050,77.2725
171.9153,77.2208
171.9445,77.1770
171.9883,77.1478
172.0400,77.1375
Z" /> 
<path style="fill:#000000; fill-opacity:1.0000; stroke:none;fill-rule:evenodd;"
d="M 179.4450,79.8000
179.4986,79.8107
179.5440,79.8410
179.5743,79.8864
179.5850,79.9400
179.5850,80.2200
179.5743,80.2736
179.5440,80.3190
179.4986,80.3493
179.4450,80.3600
179.1050,80.3600
179.0514,80.3493
179.0060,80.3190
178.9757,80.2736
178.9650,80.2200
178.9650,79.9400
178.9757,79.8864
179.0060,79.8410
179.0514,79.8107
179.1050,79.8000
Z" /> 
<path style="fill:#000000; fill-opacity:1.0000; stroke:none;fill-rule:evenodd;"
d="M 179.4450,78.8400
179.4986,78.8507
179.5440,78.8810
179.5743,78.9264
179.5850,78.9800
179.5850,79.2600
179.5743,79.3136
179.5440,79.3590
179.4986,79.3893
179.4450,79.4000
179.1050,79.4000
179.0514,79.3893
179.0060,79.3590
178.9757,79.3136
178.9650,79.2600
178.9650,78.9800
178.9757,78.9264
179.0060,78.8810
179.0514,78.8507
179.1050,78.8400
Z" /> 
</g>
<g style="fill:#000000; fill-opacity:1.0000; stroke:none;">
<circle cx="173.7250" cy="83.2000" r="0.5000" /> 
</g>
<g style="fill:none; 
stroke:#000000; stroke-width:0.2000; stroke-opacity:1; 
stroke-linecap:round; stroke-linejoin:round;">
<path d="M174.9950 77.8000
L174.5750 77.8000
" />
<path d="M174.9950 77.8000
L174.9950 76.1300
" />
<path d="M174.9950 76.1300
L175.0250 76.1000
" />
<path d="M174.3750 78.0000
L174.3750 78.6500
" />
<path d="M174.6000 78.8750
L174.3750 78.6500
" />
<path d="M174.5750 77.8000
L174.3750 78.0000
" />
<path d="M175.0000 78.8750
L174.6000 78.8750
" />
<path d="M177.2500 80.3750
L176.5000 79.6250
" />
</g>
<g style="fill:none; 
stroke:#000000; stroke-width:0.4000; stroke-opacity:1; 
stroke-linecap:round; stroke-linejoin:round;">
<path d="M176.4750 77.8000
L176.9950 77.8000
" />
<path d="M175.9550 77.8000
L176.4750 77.8000
" />
<path d="M176.5000 77.8250
L176.5000 79.6250
" />
</g>
<g style="fill:none; 
stroke:#000000; stroke-width:0.2000; stroke-opacity:1; 
stroke-linecap:round; stroke-linejoin:round;">
<path d="M178.5000 80.3750
L179.0750 80.9500
" />
<path d="M178.0000 80.3750
L177.2500 80.3750
" />
<path d="M179.0750 80.9500
L179.0750 81.9500
" />
<path d="M178.0000 80.3750
L178.5000 80.3750
" />
</g>
<g style="fill:none; 
stroke:#000000; stroke-width:0.4000; stroke-opacity:1; 
stroke-linecap:round; stroke-linejoin:round;">
<path d="M176.4750 77.8000
L176.5000 77.8250
" />
</g>
<g style="fill:none; 
stroke:#000000; stroke-width:0.2000; stroke-opacity:1; 
stroke-linecap:round; stroke-linejoin:round;">
<path d="M178.5500 78.8750
L178.7250 78.7000
" />
<path d="M177.9550 76.1800
L177.8250 76.0500
" />
<path d="M178.7250 78.1000
L178.7250 77.9000
" />
<path d="M178.6250 77.8000
L177.9550 77.8000
" />
<path d="M178.0000 78.8750
L178.5500 78.8750
" />
</g>
<g style="fill:none; 
stroke:#000000; stroke-width:0.4000; stroke-opacity:1; 
stroke-linecap:round; stroke-linejoin:round;">
<path d="M177.8250 76.0500
L176.5750 74.8000
" />
</g>
<g style="fill:none; 
stroke:#000000; stroke-width:0.2000; stroke-opacity:1; 
stroke-linecap:round; stroke-linejoin:round;">
<path d="M178.7250 78.7000
L178.7250 78.1000
" />
<path d="M177.9550 77.8000
L177.9550 76.1800
" />
</g>
<g style="fill:none; 
stroke:#000000; stroke-width:0.4000; stroke-opacity:1; 
stroke-linecap:round; stroke-linejoin:round;">
<path d="M172.2250 75.5500
L172.2250 77.4075
" />
</g>
<g style="fill:none; 
stroke:#000000; stroke-width:0.2000; stroke-opacity:1; 
stroke-linecap:round; stroke-linejoin:round;">
<path d="M178.7250 77.9000
L178.6250 77.8000
" />
</g>
<g style="fill:none; 
stroke:#000000; stroke-width:0.4000; stroke-opacity:1; 
stroke-linecap:round; stroke-linejoin:round;">
<path d="M172.9750 74.8000
L172.2250 75.5500
" />
<path d="M176.5750 74.8000
L172.9750 74.8000
" />
</g>
<g style="fill:none; 
stroke:#000000; stroke-width:0.2000; stroke-opacity:1; 
stroke-linecap:round; stroke-linejoin:round;">
<path d="M174.1250 81.1500
L174.9250 81.9500
" />
<path d="M174.1250 80.9500
L174.1250 81.1500
" />
<path d="M174.3000 80.3750
L174.1250 80.5500
" />
<path d="M174.9250 81.9500
L175.4250 81.9500
" />
<path d="M174.1250 80.5500
L174.1250 80.9500
" />
<path d="M175.0000 80.3750
L174.3000 80.3750
" />
<path d="M174.1500 79.8750
L173.7250 80.3000
" />
<path d="M173.7250 80.3000
L173.7250 83.2000
" />
<path d="M174.2250 79.8750
L174.1500 79.8750
" />
<path d="M175.0000 79.8750
L174.2250 79.8750
" />
<path d="M175.0000 79.3750
L173.7000 79.3750
" />
<path d="M172.2250 81.8000
L172.1162 81.9087
" />
<path d="M172.7400 80.3350
L172.2250 80.3350
" />
<path d="M173.7000 79.3750
L172.7400 80.3350
" />
<path d="M172.2250 80.3350
L172.2250 81.8000
" />
</g>
<g style="fill:none; 
stroke:#000000; stroke-width:0.4000; stroke-opacity:1; 
stroke-linecap:round; stroke-linejoin:round;">
<path d="M172.2250 78.4275
L172.2250 79.3650
" />
<path d="M183.1800 79.2200
L183.2000 79.2000
" />
</g>
<g style="fill:none; 
stroke:#000000; stroke-width:0.2000; stroke-opacity:1; 
stroke-linecap:round; stroke-linejoin:round;">
<path d="M178.0000 79.3750
L179.0200 79.3750
" />
<path d="M179.0200 79.3750
L179.2750 79.1200
" />
</g>
<g style="fill:none; 
stroke:#000000; stroke-width:0.4000; stroke-opacity:1; 
stroke-linecap:round; stroke-linejoin:round;">
<path d="M183.1200 79.1200
L183.2000 79.2000
" />
<path d="M179.2750 79.1200
L183.1200 79.1200
" />
<path d="M186.0200 80.2800
L186.3000 80.0000
" />
</g>
<g style="fill:none; 
stroke:#000000; stroke-width:0.2000; stroke-opacity:1; 
stroke-linecap:round; stroke-linejoin:round;">
<path d="M178.0000 79.8750
L179.0700 79.8750
" />
</g>
<g style="fill:none; 
stroke:#000000; stroke-width:0.4000; stroke-opacity:1; 
stroke-linecap:round; stroke-linejoin:round;">
<path d="M179.2750 80.0800
L186.2200 80.0800
" />
<path d="M186.2200 80.0800
L186.3000 80.0000
" />
</g>
<g style="fill:none; 
stroke:#000000; stroke-width:0.2000; stroke-opacity:1; 
stroke-linecap:round; stroke-linejoin:round;">
<path d="M179.0700 79.8750
L179.2750 80.0800
" />
</g>
<g style="fill:#FFFFFF; fill-opacity:1.0000; stroke:none;">
<circle cx="183.2000" cy="79.2000" r="0.2000" /> 
</g>
<g style="fill:#FFFFFF; fill-opacity:1.0000; stroke:none;">
<circle cx="186.3000" cy="80.0000" r="0.2000" /> 
</g>
<g style="fill:none; 
stroke:#000000; stroke-width:0.0500; stroke-opacity:1; 
stroke-linecap:round; stroke-linejoin:round;">
<circle cx="150.0000" cy="80.0000" r="37.0000" /> 
</g> 
</svg>
