<?xml version="1.0" standalone="no"?>
 <!DOCTYPE svg PUBLIC "-//W3C//DTD SVG 1.1//EN" 
 "http://www.w3.org/Graphics/SVG/1.1/DTD/svg11.dtd"> 
<svg
  xmlns:svg="http://www.w3.org/2000/svg"
  xmlns="http://www.w3.org/2000/svg"
  xmlns:xlink="http://www.w3.org/1999/xlink"
  version="1.1"
  width="297.0022mm" height="210.0072mm" viewBox="0.0000 0.0000 297.0022 210.0072">
<title>SVG Image created as BusinessCard-F_Fab.svg date 2024/07/12 19:46:15 </title>
  <desc>Image generated by PCBNEW </desc>
<g style="fill:#000000; fill-opacity:1.0000;stroke:#000000; stroke-opacity:1.0000;
stroke-linecap:round; stroke-linejoin:round;"
 transform="translate(0 0) scale(1 1)">
</g>
<g style="fill:none; 
stroke:#000000; stroke-width:0.1000; stroke-opacity:1; 
stroke-linecap:round; stroke-linejoin:round;">
<text x="177.4750" y="82.6000"
textLength="4.9857" font-size="0.6667" lengthAdjust="spacingAndGlyphs"
text-anchor="middle" opacity="0">NFC Antenna</text>
<g class="stroked-text"><desc>NFC Antenna</desc>
<path d="M175.2012 82.5761
L175.2012 82.0761
" />
<path d="M175.2012 82.0761
L175.4869 82.5761
" />
<path d="M175.4869 82.5761
L175.4869 82.0761
" />
<path d="M175.8917 82.3142
L175.7250 82.3142
" />
<path d="M175.7250 82.5761
L175.7250 82.0761
" />
<path d="M175.7250 82.0761
L175.9631 82.0761
" />
<path d="M176.4393 82.5285
L176.4155 82.5523
" />
<path d="M176.4155 82.5523
L176.3440 82.5761
" />
<path d="M176.3440 82.5761
L176.2964 82.5761
" />
<path d="M176.2964 82.5761
L176.2250 82.5523
" />
<path d="M176.2250 82.5523
L176.1774 82.5047
" />
<path d="M176.1774 82.5047
L176.1536 82.4571
" />
<path d="M176.1536 82.4571
L176.1298 82.3618
" />
<path d="M176.1298 82.3618
L176.1298 82.2904
" />
<path d="M176.1298 82.2904
L176.1536 82.1952
" />
<path d="M176.1536 82.1952
L176.1774 82.1475
" />
<path d="M176.1774 82.1475
L176.2250 82.0999
" />
<path d="M176.2250 82.0999
L176.2964 82.0761
" />
<path d="M176.2964 82.0761
L176.3440 82.0761
" />
<path d="M176.3440 82.0761
L176.4155 82.0999
" />
<path d="M176.4155 82.0999
L176.4393 82.1237
" />
<path d="M177.0107 82.4333
L177.2488 82.4333
" />
<path d="M176.9631 82.5761
L177.1298 82.0761
" />
<path d="M177.1298 82.0761
L177.2964 82.5761
" />
<path d="M177.4631 82.2428
L177.4631 82.5761
" />
<path d="M177.4631 82.2904
L177.4869 82.2666
" />
<path d="M177.4869 82.2666
L177.5345 82.2428
" />
<path d="M177.5345 82.2428
L177.6060 82.2428
" />
<path d="M177.6060 82.2428
L177.6536 82.2666
" />
<path d="M177.6536 82.2666
L177.6774 82.3142
" />
<path d="M177.6774 82.3142
L177.6774 82.5761
" />
<path d="M177.8440 82.2428
L178.0345 82.2428
" />
<path d="M177.9155 82.0761
L177.9155 82.5047
" />
<path d="M177.9155 82.5047
L177.9393 82.5523
" />
<path d="M177.9393 82.5523
L177.9869 82.5761
" />
<path d="M177.9869 82.5761
L178.0345 82.5761
" />
<path d="M178.3917 82.5523
L178.3440 82.5761
" />
<path d="M178.3440 82.5761
L178.2488 82.5761
" />
<path d="M178.2488 82.5761
L178.2012 82.5523
" />
<path d="M178.2012 82.5523
L178.1774 82.5047
" />
<path d="M178.1774 82.5047
L178.1774 82.3142
" />
<path d="M178.1774 82.3142
L178.2012 82.2666
" />
<path d="M178.2012 82.2666
L178.2488 82.2428
" />
<path d="M178.2488 82.2428
L178.3440 82.2428
" />
<path d="M178.3440 82.2428
L178.3917 82.2666
" />
<path d="M178.3917 82.2666
L178.4155 82.3142
" />
<path d="M178.4155 82.3142
L178.4155 82.3618
" />
<path d="M178.4155 82.3618
L178.1774 82.4094
" />
<path d="M178.6298 82.2428
L178.6298 82.5761
" />
<path d="M178.6298 82.2904
L178.6536 82.2666
" />
<path d="M178.6536 82.2666
L178.7012 82.2428
" />
<path d="M178.7012 82.2428
L178.7726 82.2428
" />
<path d="M178.7726 82.2428
L178.8202 82.2666
" />
<path d="M178.8202 82.2666
L178.8440 82.3142
" />
<path d="M178.8440 82.3142
L178.8440 82.5761
" />
<path d="M179.0821 82.2428
L179.0821 82.5761
" />
<path d="M179.0821 82.2904
L179.1060 82.2666
" />
<path d="M179.1060 82.2666
L179.1536 82.2428
" />
<path d="M179.1536 82.2428
L179.2250 82.2428
" />
<path d="M179.2250 82.2428
L179.2726 82.2666
" />
<path d="M179.2726 82.2666
L179.2964 82.3142
" />
<path d="M179.2964 82.3142
L179.2964 82.5761
" />
<path d="M179.7488 82.5761
L179.7488 82.3142
" />
<path d="M179.7488 82.3142
L179.7250 82.2666
" />
<path d="M179.7250 82.2666
L179.6774 82.2428
" />
<path d="M179.6774 82.2428
L179.5821 82.2428
" />
<path d="M179.5821 82.2428
L179.5345 82.2666
" />
<path d="M179.7488 82.5523
L179.7012 82.5761
" />
<path d="M179.7012 82.5761
L179.5821 82.5761
" />
<path d="M179.5821 82.5761
L179.5345 82.5523
" />
<path d="M179.5345 82.5523
L179.5107 82.5047
" />
<path d="M179.5107 82.5047
L179.5107 82.4571
" />
<path d="M179.5107 82.4571
L179.5345 82.4094
" />
<path d="M179.5345 82.4094
L179.5821 82.3856
" />
<path d="M179.5821 82.3856
L179.7012 82.3856
" />
<path d="M179.7012 82.3856
L179.7488 82.3618
" />
</g></g>
<g style="fill:none; 
stroke:#000000; stroke-width:0.1500; stroke-opacity:1; 
stroke-linecap:round; stroke-linejoin:round;">
<text x="150.1000" y="82.9000"
textLength="2.9643" font-size="1.3333" lengthAdjust="spacingAndGlyphs"
text-anchor="middle" opacity="0">AE1</text>
<g class="stroked-text"><desc>AE1</desc>
<path d="M148.9333 82.5691
L149.4095 82.5691
" />
<path d="M148.8381 82.8548
L149.1714 81.8548
" />
<path d="M149.1714 81.8548
L149.5048 82.8548
" />
<path d="M149.8381 82.3310
L150.1714 82.3310
" />
<path d="M150.3143 82.8548
L149.8381 82.8548
" />
<path d="M149.8381 82.8548
L149.8381 81.8548
" />
<path d="M149.8381 81.8548
L150.3143 81.8548
" />
<path d="M151.2667 82.8548
L150.6952 82.8548
" />
<path d="M150.9810 82.8548
L150.9810 81.8548
" />
<path d="M150.9810 81.8548
L150.8857 81.9977
" />
<path d="M150.8857 81.9977
L150.7905 82.0929
" />
<path d="M150.7905 82.0929
L150.6952 82.1405
" />
</g></g>
<g style="fill:none; 
stroke:#000000; stroke-width:0.0212; stroke-opacity:1; 
stroke-linecap:round; stroke-linejoin:round;">
<circle cx="183.2000" cy="79.2000" r="0.4000" /> 
</g>
<g style="fill:none; 
stroke:#000000; stroke-width:0.0212; stroke-opacity:1; 
stroke-linecap:round; stroke-linejoin:round;">
<circle cx="186.3000" cy="80.0000" r="0.4000" /> 
</g>
<g style="fill:none; 
stroke:#000000; stroke-width:0.0500; stroke-opacity:1; 
stroke-linecap:round; stroke-linejoin:round;">
<circle cx="150.0000" cy="80.0000" r="37.0000" /> 
</g> 
</svg>
